<svg id="icon-dashboard" xmlns="http://www.w3.org/2000/svg" viewBox="0 0 430 390.5">
<path d="M394.81,0H35.19A35.2,35.2,0,0,0,0,35.19V274.81A35.2,35.2,0,0,0,35.19,310H172.44a3.56,3.56,0,0,1,3.56,3.56v41.38a3.56,3.56,0,0,1-3.56,3.56H141.56a3.56,3.56,0,0,0-3.56,3.56v24.88a3.56,3.56,0,0,0,3.56,3.56H289.44a3.56,3.56,0,0,0,3.56-3.56V362.06a3.56,3.56,0,0,0-3.56-3.56H258.56a3.56,3.56,0,0,1-3.56-3.56V313.56a3.56,3.56,0,0,1,3.56-3.56H394.81A35.2,35.2,0,0,0,430,274.81V35.19A35.2,35.2,0,0,0,394.81,0Zm16.94,268.65A23.34,23.34,0,0,1,388.4,292H44.1a23.34,23.34,0,0,1-23.35-23.35V41.35A23.34,23.34,0,0,1,44.1,18H388.4a23.34,23.34,0,0,1,23.35,23.35Z"/><path class="cls-1" d="M388.4,18H44.1A23.34,23.34,0,0,0,20.75,41.35v227.3A23.34,23.34,0,0,0,44.1,292H388.4a23.34,23.34,0,0,0,23.35-23.35V41.35A23.34,23.34,0,0,0,388.4,18Zm-254,245.5H52.56A3.56,3.56,0,0,1,49,259.94V206.06a3.56,3.56,0,0,1,3.56-3.56h81.88a3.56,3.56,0,0,1,3.56,3.56v53.88A3.56,3.56,0,0,1,134.44,263.5Zm117,0H169.56a3.56,3.56,0,0,1-3.56-3.56V206.06a3.56,3.56,0,0,1,3.56-3.56h81.88a3.56,3.56,0,0,1,3.56,3.56v53.88A3.56,3.56,0,0,1,251.44,263.5Zm0-97H52.56A3.56,3.56,0,0,1,49,162.94V48.06a3.56,3.56,0,0,1,3.56-3.56H251.44A3.56,3.56,0,0,1,255,48.06V162.94A3.56,3.56,0,0,1,251.44,166.5Zm128,99H296.56a3.56,3.56,0,0,1-3.56-3.56V142.06a3.56,3.56,0,0,1,3.56-3.56h82.88a3.56,3.56,0,0,1,3.56,3.56V261.94A3.56,3.56,0,0,1,379.44,265.5Zm0-160H296.56a3.56,3.56,0,0,1-3.56-3.56V48.06a3.56,3.56,0,0,1,3.56-3.56h82.88A3.56,3.56,0,0,1,383,48.06v53.88A3.56,3.56,0,0,1,379.44,105.5Z"/>
</svg>