<?xml version="1.0" encoding="utf-8"?>
<!-- Generator: Adobe Illustrator 26.0.2, SVG Export Plug-In . SVG Version: 6.00 Build 0)  -->
<svg version="1.1" id="icon-dashboard" xmlns="http://www.w3.org/2000/svg" xmlns:xlink="http://www.w3.org/1999/xlink" x="0px"
	 y="0px" viewBox="0 0 430 390.5" style="enable-background:new 0 0 430 390.5;" xml:space="preserve">
<style type="text/css">
	.st0{fill:#FFFFFF;}
</style>
<path class="st0" d="M394.8,0H35.2C15.8,0,0,15.8,0,35.2v239.6C0,294.2,15.8,310,35.2,310h137.2c2,0,3.6,1.6,3.6,3.6v41.4
	c0,2-1.6,3.6-3.6,3.6h-30.9c-2,0-3.6,1.6-3.6,3.6v24.9c0,2,1.6,3.6,3.6,3.6h147.9c2,0,3.6-1.6,3.6-3.6v-24.9c0-2-1.6-3.6-3.6-3.6
	h-30.9c-2,0-3.6-1.6-3.6-3.6v-41.4c0-2,1.6-3.6,3.6-3.6h136.2c19.4,0,35.2-15.8,35.2-35.2V35.2C430,15.8,414.2,0,394.8,0z
	 M411.8,268.6c0,12.9-10.4,23.3-23.3,23.4c0,0,0,0,0,0H44.1c-12.9,0-23.3-10.4-23.4-23.3c0,0,0,0,0,0V41.3
	C20.7,28.5,31.2,18,44.1,18c0,0,0,0,0,0h344.3c12.9,0,23.3,10.4,23.4,23.3c0,0,0,0,0,0V268.6z"/>
<path class="st0" d="M388.4,18H44.1c-12.9,0-23.3,10.4-23.3,23.3c0,0,0,0,0,0v227.3c0,12.9,10.4,23.3,23.3,23.4c0,0,0,0,0,0h344.3
	c12.9,0,23.3-10.4,23.4-23.3c0,0,0,0,0,0V41.3C411.8,28.5,401.3,18,388.4,18C388.4,18,388.4,18,388.4,18z M134.4,263.5H52.6
	c-2,0-3.6-1.6-3.6-3.6v-53.9c0-2,1.6-3.6,3.6-3.6h81.9c2,0,3.6,1.6,3.6,3.6v53.9C138,261.9,136.4,263.5,134.4,263.5L134.4,263.5z
	 M251.4,263.5h-81.8c-2,0-3.6-1.6-3.6-3.6v-53.9c0-2,1.6-3.6,3.6-3.6h81.9c2,0,3.6,1.6,3.6,3.6v53.9
	C255,261.9,253.4,263.5,251.4,263.5L251.4,263.5z M251.4,166.5H52.6c-2,0-3.6-1.6-3.6-3.6V48.1c0-2,1.6-3.6,3.6-3.6h0h198.9
	c2,0,3.6,1.6,3.6,3.6v114.9C255,164.9,253.4,166.5,251.4,166.5L251.4,166.5z M379.4,265.5h-82.8c-2,0-3.6-1.6-3.6-3.6V142.1
	c0-2,1.6-3.6,3.6-3.6h82.9c2,0,3.6,1.6,3.6,3.6v119.9C383,263.9,381.4,265.5,379.4,265.5L379.4,265.5z M379.4,105.5h-82.8
	c-2,0-3.6-1.6-3.6-3.6V48.1c0-2,1.6-3.6,3.6-3.6h82.9c2,0,3.6,1.6,3.6,3.6v53.9C383,103.9,381.4,105.5,379.4,105.5L379.4,105.5z"/>
</svg>
